<?xml version="1.0" encoding="UTF-8"?>
<!DOCTYPE svg PUBLIC "-//W3C//DTD SVG 1.1//EN" "http://www.w3.org/Graphics/SVG/1.1/DTD/svg11.dtd">
<!-- Creator: CorelDRAW X8 -->
<svg xmlns="http://www.w3.org/2000/svg" xml:space="preserve" width="191.652mm" height="141.045mm" version="1.1" style="shape-rendering:geometricPrecision; text-rendering:geometricPrecision; image-rendering:optimizeQuality; fill-rule:evenodd; clip-rule:evenodd"
viewBox="0 0 192323 141539"
 xmlns:xlink="http://www.w3.org/1999/xlink">
 <defs>
  <style type="text/css">
   <![CDATA[
    .fil0 {fill:#0C3D5D}
    .fil1 {fill:#80BC98}
    .fil2 {fill:#0C3D5D;fill-rule:nonzero}
    .fil3 {fill:#80BC98;fill-rule:nonzero}
   ]]>
  </style>
 </defs>
 <g id="Capa_x0020_1">
  <metadata id="CorelCorpID_0Corel-Layer"/>
  <g id="_2604449741840">
   <path class="fil0" d="M87427 33187c-10739,2668 -7817,5334 -13629,13760 -5671,8221 -7704,6492 -12221,12195 -3013,3805 -3162,9827 -1585,14278 1128,3182 3310,5369 6272,7273 8308,5342 14140,-1082 23272,-434 9734,689 13660,5480 22458,-147 6010,-3844 8220,-12748 4255,-19933 -3173,-5748 -7536,-5080 -13625,-14507 -2074,-3210 -3075,-6288 -5139,-8950 -1510,-1948 -6385,-4448 -10058,-3535z"/>
   <path class="fil0" d="M103509 691c-4160,947 -5731,2247 -7704,4830 -2030,2656 -3445,5015 -3581,8858 -138,3875 -119,6862 2331,10138 5961,7972 18723,2746 20146,-10239 824,-7523 -3811,-15269 -11192,-13587z"/>
   <path class="fil1" d="M68796 9862c-9315,64 -9331,-857 -9257,5318 50,4105 4957,3346 9257,3317 0,3797 -752,7807 2001,9074 1074,495 6751,1679 6755,-3629l0 -5444c6903,63 9364,1209 9352,-5442 -7,-4107 -2589,-3190 -9352,-3191 0,-4571 745,-7933 -1715,-9379 -994,-585 -3771,-652 -5083,-144 -2554,989 -1958,5595 -1958,9520z"/>
   <path class="fil0" d="M120355 28408c-5763,1480 -9640,4741 -11208,10110 -3979,13615 17242,15089 21318,583 1886,-6716 -3465,-12399 -10110,-10693z"/>
   <path class="fil0" d="M51038 28455c-2924,1343 -4619,2126 -5552,5076 -2542,8042 6502,17564 15406,15651 6594,-1416 7604,-8782 4513,-13879 -1813,-2987 -8823,-9394 -14367,-6848z"/>
   <path class="fil2" d="M0 105860c0,-2194 478,-4244 1433,-6157 956,-1913 2357,-3444 4203,-4592 1847,-1148 4010,-1725 6489,-1725 1898,0 3596,331 5101,994 1504,657 2763,1565 3783,2718 1021,1154 1795,2479 2338,3970 536,1491 826,3090 865,4792 0,2216 -484,4272 -1453,6168 -968,1890 -2369,3398 -4203,4523 -1834,1120 -3977,1680 -6431,1680 -2260,0 -4313,-520 -6159,-1554 -1853,-1039 -3312,-2502 -4371,-4381 -1066,-1884 -1595,-4026 -1595,-6436zm3641 -63c0,1502 259,2993 769,4483 510,1491 1394,2753 2660,3793 1265,1033 2950,1553 5055,1553 1175,0 2267,-205 3280,-617 1020,-405 1911,-1022 2686,-1844 781,-823 1388,-1851 1827,-3079 439,-1234 672,-2661 691,-4289 0,-1605 -219,-3033 -652,-4278 -433,-1239 -1039,-2267 -1808,-3084 -768,-811 -1666,-1422 -2692,-1828 -1033,-411 -2137,-617 -3332,-617 -1582,0 -3021,377 -4306,1137 -1292,760 -2312,1879 -3054,3364 -749,1485 -1124,3250 -1124,5306zm44397 -9807c310,343 465,732 465,1171 0,326 -142,606 -413,851 -278,240 -613,377 -1020,411 -413,-85 -697,-177 -846,-274 -516,-337 -1033,-668 -1537,-993 -510,-332 -1084,-600 -1723,-817 -640,-212 -1414,-326 -2325,-349 -1988,0 -3648,497 -4965,1485 -1317,988 -2273,2222 -2879,3696 -601,1479 -917,2947 -950,4415 0,1347 246,2787 730,4306 484,1519 1343,2838 2576,3958 1233,1125 2880,1713 4939,1776 1363,0 2486,-154 3358,-462 878,-309 1930,-783 3163,-1423 336,-182 711,-274 1117,-274 407,0 723,126 949,383 220,251 336,571 336,954 0,519 -174,896 -510,1131 -1001,816 -2253,1405 -3757,1759 -1505,360 -2977,537 -4417,537 -2124,-23 -3964,-412 -5520,-1166 -1550,-759 -2815,-1742 -3783,-2958 -975,-1217 -1686,-2519 -2144,-3907 -452,-1388 -678,-2735 -678,-4032 0,-1708 258,-3330 775,-4866 516,-1542 1291,-2901 2311,-4084 1027,-1182 2305,-2113 3848,-2792 1537,-674 3293,-1023 5269,-1040 923,0 1879,97 2847,291 975,189 1885,480 2731,874 846,389 1530,868 2053,1439zm24718 0c310,343 465,732 465,1171 0,326 -142,606 -413,851 -278,240 -614,377 -1021,411 -413,-85 -697,-177 -845,-274 -517,-337 -1033,-668 -1537,-993 -510,-332 -1085,-600 -1724,-817 -639,-212 -1414,-326 -2324,-349 -1989,0 -3648,497 -4965,1485 -1318,988 -2273,2222 -2880,3696 -600,1479 -917,2947 -949,4415 0,1347 245,2787 730,4306 484,1519 1342,2838 2576,3958 1233,1125 2879,1713 4939,1776 1362,0 2486,-154 3357,-462 878,-309 1931,-783 3164,-1423 336,-182 710,-274 1117,-274 407,0 723,126 949,383 220,251 336,571 336,954 0,519 -175,896 -510,1131 -1001,816 -2253,1405 -3758,1759 -1504,360 -2976,537 -4416,537 -2124,-23 -3964,-412 -5521,-1166 -1549,-759 -2814,-1742 -3783,-2958 -975,-1217 -1685,-2519 -2144,-3907 -452,-1388 -678,-2735 -678,-4032 0,-1708 259,-3330 775,-4866 517,-1542 1292,-2901 2312,-4084 1026,-1182 2305,-2113 3848,-2792 1536,-674 3293,-1023 5268,-1040 924,0 1879,97 2848,291 975,189 1885,480 2731,874 846,389 1530,868 2053,1439zm5968 -999c0,-1068 581,-1605 1743,-1605 452,0 839,131 1156,400 316,268 471,668 471,1205l0 21560c0,634 -174,1074 -523,1314 -342,246 -717,366 -1104,366 -1162,0 -1743,-537 -1743,-1617l0 -21623zm13089 1205l0 19225 5314 0c807,0 1672,-132 2595,-395 930,-262 1847,-748 2751,-1456 910,-708 1659,-1725 2247,-3050 587,-1331 884,-2998 884,-5003 0,-1456 -213,-2759 -633,-3912 -426,-1154 -1026,-2131 -1807,-2930 -788,-806 -1731,-1417 -2841,-1845 -1104,-423 -2331,-634 -3668,-634l-4842 0zm-3370 -999c0,-1069 594,-1605 1775,-1605l6980 0c2486,0 4636,542 6456,1627 1828,1086 3209,2553 4165,4410 949,1856 1427,3889 1427,6094 -33,2393 -504,4523 -1408,6379 -910,1862 -2240,3313 -4003,4358 -1756,1045 -3867,1565 -6327,1565l-7290 0c-607,0 -1058,-154 -1343,-463 -290,-314 -432,-605 -432,-874l0 -21491zm26002 68c0,-514 142,-919 433,-1222 284,-303 620,-451 994,-451l10421 0c445,0 794,137 1052,405 259,274 388,606 388,994 0,405 -129,737 -394,1005 -265,269 -639,406 -1117,406l-8406 0 0 8053 7663 0c472,0 840,131 1111,400 271,268 407,605 407,1005 0,388 -142,719 -426,994 -284,274 -672,411 -1163,411l-7592 0 0 7950 8477 0c458,0 807,137 1059,411 252,280 381,634 381,1062 0,366 -142,680 -433,943 -284,263 -697,394 -1239,394l-9950 0c-704,0 -1156,-183 -1356,-554 -207,-366 -310,-720 -310,-1062l0 -21144zm18875 -343c0,-496 129,-885 387,-1176 258,-286 607,-428 1040,-428 794,0 1439,342 1943,1028l14488 18402 39 0 0 -17757c0,-497 168,-885 497,-1177 329,-285 723,-428 1169,-428 497,0 917,143 1246,423 329,280 497,674 497,1182l0 21760c0,491 -142,874 -420,1143 -284,268 -645,405 -1084,405 -711,0 -1343,-320 -1905,-959l-14450 -18397 -77 -74 0 17882c0,480 -168,846 -497,1097 -329,257 -736,383 -1208,383 -452,0 -845,-132 -1175,-400 -329,-269 -490,-651 -490,-1148l0 -21761zm32116 1480l-5307 0c-465,0 -839,-137 -1117,-406 -278,-274 -433,-605 -471,-1005 38,-383 200,-714 490,-988 291,-274 685,-411 1176,-411l13823 0c549,0 968,131 1253,399 284,269 426,606 426,1000 0,405 -136,737 -401,1005 -264,269 -639,406 -1117,406l-5346 0 0 20281c0,474 -174,851 -523,1131 -348,279 -755,417 -1226,417 -446,0 -833,-138 -1163,-417 -329,-280 -497,-657 -497,-1131l0 -20281zm13600 -1137c0,-514 142,-919 432,-1222 284,-303 620,-451 995,-451l10420 0c446,0 795,137 1053,405 258,274 387,606 387,994 0,405 -129,737 -394,1005 -264,269 -639,406 -1117,406l-8406 0 0 8053 7664 0c471,0 839,131 1110,400 272,268 407,605 407,1005 0,388 -142,719 -426,994 -284,274 -671,411 -1162,411l-7593 0 0 7950 8477 0c459,0 808,137 1059,411 252,280 381,634 381,1062 0,366 -142,680 -432,943 -284,263 -698,394 -1240,394l-9949 0c-704,0 -1156,-183 -1356,-554 -207,-366 -310,-720 -310,-1062l0 -21144z"/>
   <path class="fil3" d="M9620 135896c0,-822 144,-1575 430,-2259 286,-685 691,-1275 1216,-1771 527,-497 1152,-875 1873,-1141 725,-264 1516,-397 2376,-397 520,0 1047,48 1580,143 533,96 994,276 1382,537 389,263 583,617 583,1066 0,90 -11,186 -33,283 -22,98 -33,148 -33,153 -217,434 -572,670 -1063,705 -170,-10 -370,-50 -600,-118 -233,-67 -444,-133 -633,-193 -186,-60 -369,-113 -544,-153 -175,-40 -355,-60 -539,-60 -707,0 -1321,176 -1837,524 -519,351 -872,833 -1060,1450 -117,326 -195,747 -234,1261 34,843 272,1575 717,2197 510,652 1282,978 2312,978 619,0 1163,-100 1632,-301 314,-120 580,-180 799,-180 356,0 653,103 891,308 239,206 358,469 358,790 0,575 -324,1001 -979,1277 -897,364 -1819,544 -2765,544 -952,0 -1807,-160 -2565,-484 -957,-386 -1740,-1023 -2348,-1916 -611,-893 -916,-1974 -916,-3243zm11572 -4123c0,-446 136,-775 408,-983 269,-208 602,-311 991,-311 866,35 1299,486 1299,1354l0 7208 2961 0c411,0 731,108 958,324 231,215 344,509 344,877 -30,337 -166,597 -411,781 -244,183 -527,275 -854,275l-4331 0c-424,0 -757,-120 -1002,-361 -241,-241 -363,-501 -363,-782l0 -8382zm8188 0c0,-439 128,-765 386,-975 258,-214 585,-319 982,-319 389,0 708,108 958,326 247,216 372,539 372,968l0 8289c0,371 -103,680 -308,928 -208,248 -536,381 -991,399 -466,0 -816,-121 -1049,-364 -233,-243 -350,-554 -350,-933l0 -8319zm3783 -3025l-2517 964c-206,85 -447,145 -733,180 -327,-30 -586,-140 -772,-328 -183,-189 -277,-432 -277,-728 0,-411 194,-687 583,-825l2478 -963c314,-100 564,-150 753,-150 322,0 577,97 774,293 194,196 292,439 292,730 0,414 -195,687 -581,827zm1308 3025c0,-364 116,-665 352,-903 233,-241 550,-361 947,-361 280,0 519,58 716,176 194,115 422,293 683,534l5013 5640 33 0 0 -5116c0,-344 111,-640 330,-890 222,-249 544,-374 969,-374 458,0 805,118 1044,354 236,233 355,536 355,910l0 8291c0,394 -122,718 -369,973 -247,254 -580,382 -997,382 -299,0 -552,-68 -752,-204 -203,-132 -408,-321 -613,-564l-5013 -5643 0 5177c0,388 -131,692 -394,908 -264,218 -622,326 -1072,326 -386,-18 -685,-146 -905,-382 -219,-238 -327,-544 -327,-915l0 -8319zm12518 0c0,-439 128,-765 386,-975 258,-214 586,-319 983,-319 388,0 707,108 957,326 247,216 372,539 372,968l0 8289c0,371 -103,680 -308,928 -208,248 -536,381 -991,399 -466,0 -816,-121 -1049,-364 -233,-243 -350,-554 -350,-933l0 -8319zm4791 4123c0,-822 144,-1575 430,-2259 286,-685 691,-1275 1216,-1771 527,-497 1152,-875 1874,-1141 724,-264 1515,-397 2376,-397 519,0 1046,48 1579,143 533,96 994,276 1382,537 389,263 583,617 583,1066 0,90 -11,186 -33,283 -22,98 -33,148 -33,153 -217,434 -572,670 -1063,705 -170,-10 -370,-50 -600,-118 -233,-67 -444,-133 -633,-193 -186,-60 -369,-113 -544,-153 -175,-40 -355,-60 -538,-60 -708,0 -1322,176 -1838,524 -519,351 -872,833 -1060,1450 -117,326 -195,747 -233,1261 33,843 272,1575 716,2197 510,652 1282,978 2312,978 619,0 1163,-100 1632,-301 314,-120 580,-180 799,-180 356,0 653,103 891,308 239,206 358,469 358,790 0,575 -324,1001 -979,1277 -897,364 -1818,544 -2765,544 -952,0 -1807,-160 -2565,-484 -957,-386 -1740,-1023 -2348,-1916 -611,-893 -916,-1974 -916,-3243zm11222 3145l2848 -6939c439,-1212 1127,-1819 2065,-1819 927,0 1621,557 2082,1668l2978 7196c159,461 236,827 236,1098 0,334 -122,597 -366,793 -244,193 -555,290 -936,290 -677,0 -1143,-381 -1396,-1143l-336 -1038 -4410 0 -367 1038c-125,366 -299,642 -521,830 -223,188 -528,283 -911,283 -844,0 -1266,-341 -1266,-1025 0,-324 100,-733 300,-1232zm3531 -2152l2828 0 -1363 -3912 -36 0 -1429 3912zm12138 -4471c-53,-126 -106,-259 -156,-392 -52,-135 -77,-260 -77,-376 0,-333 139,-612 419,-835 277,-223 605,-336 980,-336 336,0 624,100 863,298 241,201 419,457 536,770l2317 5553 2313 -5508c277,-722 766,-1083 1465,-1083 233,0 453,50 658,151 205,100 369,238 491,416 122,175 183,366 183,574 0,123 -77,401 -233,830l-3478 7825c-174,376 -363,652 -566,825 -202,173 -480,259 -833,259 -369,0 -657,-86 -863,-256 -205,-171 -408,-457 -605,-860l-3414 -7855zm11702 2467l0 -3084c0,-409 134,-718 403,-923 269,-206 566,-309 894,-309l4268 0c384,0 692,101 922,301 228,201 342,482 342,843 0,316 -100,579 -303,792 -205,214 -525,321 -961,321l-2867 0 0 1942 2668 0c405,0 719,110 943,328 225,218 339,487 339,803 0,308 -116,574 -350,802 -230,226 -541,339 -932,339l-2668 0 0 2001 2867 0c470,0 814,106 1036,314 219,210 330,466 330,770 0,348 -111,632 -333,847 -222,219 -566,326 -1033,326l-4166 0c-450,0 -796,-118 -1038,-353 -241,-233 -361,-519 -361,-853l0 -5207zm10651 5207l0 -7266 -1483 0c-447,0 -791,-100 -1035,-298 -241,-198 -364,-469 -364,-815 0,-763 467,-1144 1399,-1144l5713 0c932,0 1399,381 1399,1144 0,346 -120,617 -361,815 -242,198 -586,298 -1038,298l-1516 0 0 7266c0,416 -122,737 -369,961 -244,223 -572,336 -980,336 -399,0 -724,-113 -982,-339 -256,-226 -383,-544 -383,-958zm7239 -5207l0 -3084c0,-409 133,-718 402,-923 269,-206 566,-309 894,-309l4269 0c383,0 691,101 921,301 228,201 342,482 342,843 0,316 -100,579 -303,792 -205,214 -524,321 -960,321l-2867 0 0 1942 2667 0c405,0 719,110 944,328 225,218 338,487 338,803 0,308 -116,574 -349,802 -231,226 -542,339 -933,339l-2667 0 0 2001 2867 0c469,0 813,106 1035,314 220,210 331,466 331,770 0,348 -111,632 -334,847 -222,219 -566,326 -1032,326l-4166 0c-450,0 -797,-118 -1039,-353 -241,-233 -360,-519 -360,-853l0 -5207zm8801 -3114c0,-304 120,-580 355,-828 239,-248 586,-374 1044,-374l3164 0c847,0 1569,146 2168,437 600,288 1052,697 1363,1224 311,526 467,1141 467,1843 -31,619 -203,1131 -517,1542 -316,412 -677,718 -1088,921 -411,203 -799,331 -1163,381l2434 2347c311,284 467,610 467,978 0,347 -147,622 -447,833 -297,208 -672,314 -1119,314 -399,-45 -749,-231 -1049,-560l-3348 -3817 -33 0 0 3080c0,426 -130,750 -394,968 -264,218 -599,329 -1005,329 -866,-40 -1299,-482 -1299,-1327l0 -8291zm2698 1055l0 2393 1699 0c389,0 730,-110 1024,-326 294,-216 442,-499 442,-848 0,-338 -134,-627 -403,-865 -266,-236 -588,-354 -963,-354l-1799 0zm7669 -1053c0,-439 128,-765 386,-975 258,-214 586,-319 983,-319 388,0 708,108 958,326 247,216 372,539 372,968l0 8289c0,371 -103,680 -309,928 -208,248 -535,381 -991,399 -466,0 -816,-121 -1049,-364 -233,-243 -350,-554 -350,-933l0 -8319zm5091 0c0,-364 117,-665 353,-903 233,-241 549,-361 946,-361 281,0 519,58 716,176 195,115 422,293 683,534l5013 5640 33 0 0 -5116c0,-344 111,-640 331,-890 222,-249 544,-374 968,-374 458,0 805,118 1044,354 236,233 355,536 355,910l0 8291c0,394 -122,718 -369,973 -247,254 -580,382 -996,382 -300,0 -553,-68 -752,-204 -203,-132 -409,-321 -614,-564l-5013 -5643 0 5177c0,388 -130,692 -394,908 -264,218 -622,326 -1071,326 -386,-18 -686,-146 -905,-382 -220,-238 -328,-544 -328,-915l0 -8319zm12169 7268l2848 -6939c438,-1212 1127,-1819 2065,-1819 927,0 1621,557 2082,1668l2978 7196c158,461 236,827 236,1098 0,334 -122,597 -367,793 -244,193 -555,290 -935,290 -677,0 -1143,-381 -1396,-1143l-336 -1038 -4411 0 -366 1038c-125,366 -300,642 -522,830 -222,188 -527,283 -910,283 -844,0 -1266,-341 -1266,-1025 0,-324 100,-733 300,-1232zm3531 -2152l2828 0 -1363 -3912 -36 0 -1429 3912zm8424 -5118c0,-304 119,-580 355,-828 239,-248 586,-374 1044,-374l3164 0c847,0 1568,146 2168,437 599,288 1052,697 1363,1224 311,526 466,1141 466,1843 -30,619 -203,1131 -516,1542 -317,412 -678,718 -1088,921 -411,203 -800,331 -1163,381l2434 2347c311,284 466,610 466,978 0,347 -147,622 -447,833 -297,208 -671,314 -1118,314 -400,-45 -750,-231 -1049,-560l-3348 -3817 -33 0 0 3080c0,426 -131,750 -394,968 -264,218 -600,329 -1005,329 -866,-40 -1299,-482 -1299,-1327l0 -8291zm2698 1055l0 2393 1699 0c388,0 730,-110 1024,-326 294,-216 441,-499 441,-848 0,-338 -133,-627 -402,-865 -267,-236 -589,-354 -964,-354l-1798 0zm7669 -1053c0,-439 128,-765 386,-975 258,-214 585,-319 982,-319 389,0 708,108 958,326 247,216 372,539 372,968l0 8289c0,371 -103,680 -308,928 -208,248 -536,381 -991,399 -466,0 -816,-121 -1049,-364 -233,-243 -350,-554 -350,-933l0 -8319zm4741 7268l2848 -6939c438,-1212 1127,-1819 2065,-1819 927,0 1621,557 2082,1668l2978 7196c158,461 236,827 236,1098 0,334 -122,597 -366,793 -245,193 -556,290 -936,290 -677,0 -1143,-381 -1396,-1143l-336 -1038 -4411 0 -366 1038c-125,366 -300,642 -522,830 -222,188 -527,283 -910,283 -844,0 -1266,-341 -1266,-1025 0,-324 100,-733 300,-1232zm3531 -2152l2828 0 -1363 -3912 -36 0 -1429 3912z"/>
  </g>
 </g>
</svg>
